<svg width="255" height="267" viewBox="0 0 255 267" fill="none" xmlns="http://www.w3.org/2000/svg">
<path d="M213.158 267C210.789 267 194.079 253.065 163.026 225.195C151.974 236.238 139.474 244.914 125.526 251.225C111.579 257.535 97.8947 260.69 84.4737 260.69C58.6842 260.69 38.1579 254.643 22.8947 242.548C7.63158 230.191 0 213.626 0 192.855C0 179.446 3.81579 167.877 11.4474 158.149C19.3421 148.421 28.0263 140.665 37.5 134.88C47.2368 129.096 52.1053 126.598 52.1053 127.387V124.626C30.5263 102.015 19.7368 81.3752 19.7368 62.7075C19.7368 50.8759 23.1579 40.2275 30 30.7622C36.8421 21.2969 46.1842 13.8035 58.0263 8.28214C70.1316 2.76071 83.5526 0 98.2895 0C106.711 0 114.474 0.657311 121.579 1.97193C128.684 3.28656 134.211 4.73265 138.158 6.3102C142.368 7.62483 145 8.54506 146.053 9.0709L146.842 14.9867L127.895 44.1714L123.947 44.5657C114.474 35.8892 106.974 30.2363 101.447 27.6071C95.921 24.7149 89.4737 23.2688 82.1053 23.2688C71.5789 23.2688 63.1579 26.0296 56.8421 31.551C50.5263 36.8095 47.3684 44.0399 47.3684 53.2423C47.3684 62.1817 49.0789 70.4638 52.5 78.0886C56.1842 85.7134 62.1053 94.127 70.2631 103.329C78.6842 112.269 90.921 123.575 106.974 137.247L170.132 191.672C174.868 182.207 177.237 170.901 177.237 157.755C177.237 141.979 174.737 130.279 169.737 122.654C164.737 115.03 156.974 111.217 146.447 111.217C141.974 111.217 137.368 111.743 132.632 112.795C128.158 113.583 125.263 114.241 123.947 114.767L118.421 97.808C118.947 97.5451 120 96.8877 121.579 95.836C123.421 94.7843 125.921 93.7326 129.079 92.6809C132.237 91.6293 135.658 90.9719 139.342 90.709L220.658 85.9764C230.658 85.1876 238.026 84.5303 242.763 84.0044C247.763 83.2157 250.526 82.4269 251.053 81.6381L255 91.1034L249.868 103.329C248.026 106.747 245.395 108.982 241.974 110.034C238.816 110.823 232.237 111.217 222.237 111.217H182.763L181.579 113.583C186.842 118.316 190.921 124.1 193.816 130.937C196.711 137.51 198.158 144.609 198.158 152.233C198.158 169.061 192.895 185.625 182.368 201.926L237.632 248.464V254.774C235.789 256.089 231.842 258.455 225.789 261.873C219.737 265.291 215.526 267 213.158 267ZM95.5263 235.843C106.316 235.843 116.579 234.134 126.316 230.716C136.316 227.298 145 222.303 152.368 215.73L63.5526 136.458C53.2895 141.191 45 148.027 38.6842 156.966C32.6316 165.643 29.6053 174.976 29.6053 184.968C29.6053 200.48 35.5263 212.838 47.3684 222.04C59.4737 231.242 75.5263 235.843 95.5263 235.843Z" fill="#C26E50" fill-opacity="0.76"/>
</svg>
