<svg width="388" height="126" viewBox="0 0 388 126" fill="none" xmlns="http://www.w3.org/2000/svg">
<path d="M24.624 52.128C19.872 54.144 15.552 57.024 11.952 60.624C8.208 64.224 5.328 68.4 3.168 73.296C1.008 78.048 0 83.232 0 88.848C0 94.032 1.008 98.928 3.024 103.536C5.184 108.288 8.064 112.464 11.664 116.208C15.264 119.808 19.44 122.688 24.192 124.848C25.344 125.28 26.496 125.712 27.504 126C21.744 114.912 21.744 62.352 27.648 50.976C26.64 51.408 25.632 51.696 24.624 52.128ZM63.504 50.832V63.36V126H89.568V59.04L92.16 58.608V57.744C78.912 53.712 63.504 50.832 63.504 50.832ZM99.5625 58.752L102.155 59.184V126H128.075V63.504V51.12C128.075 51.12 112.811 53.856 99.5625 57.888V58.752ZM155.435 49.968C149.099 49.968 143.915 55.152 143.915 61.488C143.915 67.968 149.099 73.008 155.435 73.008C161.771 73.008 166.955 67.968 166.955 61.488C166.955 55.152 161.771 49.968 155.435 49.968ZM218.442 103.104C212.106 103.104 206.922 108.144 206.922 114.48C206.922 120.96 212.106 126 218.442 126C224.778 126 229.962 120.96 229.962 114.48C229.962 108.144 224.778 103.104 218.442 103.104ZM197.562 12.672V0.143998C197.562 0.143998 187.482 2.88 174.234 7.05599V7.91999L176.826 8.352V92.448C176.826 107.28 185.322 119.952 197.562 126V58.896V57.024L200.298 56.448V55.44C199.29 55.152 198.426 54.864 197.562 54.576V12.672ZM237.375 55.728V56.592L239.967 57.024V126H265.887V61.344V48.96C265.887 48.96 250.623 51.696 237.375 55.728ZM251.631 38.448C254.799 38.448 257.391 37.44 259.551 35.136C261.855 32.976 262.863 30.384 262.863 27.216C262.863 24.048 261.855 21.456 259.551 19.296C257.391 17.136 254.799 15.984 251.631 15.984C248.463 15.984 245.871 17.136 243.711 19.296C241.407 21.456 240.399 24.048 240.399 27.216C240.399 30.384 241.407 32.976 243.711 35.136C245.871 37.44 248.463 38.448 251.631 38.448ZM298.578 64.224C302.322 64.224 305.202 61.2 305.202 57.6C305.202 53.856 302.322 50.976 298.578 50.976C294.978 50.976 291.954 53.856 291.954 57.6C291.954 61.2 294.978 64.224 298.578 64.224ZM287.058 103.104C280.722 103.104 275.538 108.144 275.538 114.624C275.538 120.96 280.722 126 287.058 126C293.394 126 298.578 120.96 298.578 114.624C298.578 108.144 293.394 103.104 287.058 103.104ZM320.898 91.872C318.882 88.272 316.146 85.536 312.69 83.52L283.746 67.968C280.29 66.24 278.418 62.928 278.418 59.04C276.978 60.768 275.826 62.64 274.962 64.8C273.81 67.536 273.234 70.56 273.234 73.728C273.234 77.904 274.242 81.648 276.258 85.248C278.274 88.704 281.154 91.44 284.466 93.456L313.41 109.008C316.866 110.736 318.738 114.048 318.738 117.936C320.178 116.208 321.33 114.336 322.338 112.176C323.49 109.44 324.066 106.416 324.066 103.248C324.066 99.072 323.058 95.328 320.898 91.872ZM375.521 103.104C369.185 103.104 364.001 108.144 364.001 114.48C364.001 120.96 369.185 126 375.521 126C381.857 126 387.041 120.96 387.041 114.48C387.041 108.144 381.857 103.104 375.521 103.104ZM354.641 12.672V0.143998C354.641 0.143998 344.561 2.88 331.312 7.05599V7.91999L333.905 8.352V92.448C333.905 107.28 342.401 119.952 354.641 126V58.896V57.024L357.377 56.448V55.44C356.369 55.152 355.505 54.864 354.641 54.576V12.672Z" fill="black"/>
</svg>
