<svg width="530" height="109" viewBox="0 0 530 109" fill="none" xmlns="http://www.w3.org/2000/svg">
<path d="M33.288 108.728C23.208 108.728 15.24 105.8 9.384 99.944C3.624 93.992 0.744 85.88 0.744 75.608C0.744 68.696 2.232 62.456 5.208 56.888C8.184 51.32 12.264 46.952 17.448 43.784C22.632 40.52 28.392 38.888 34.728 38.888C50.856 38.888 58.92 47.048 58.92 63.368C58.92 66.248 58.584 68.936 57.912 71.432L56.184 73.16H18.888C18.984 80.168 20.616 85.544 23.784 89.288C27.048 92.936 31.56 94.76 37.32 94.76C42.312 94.76 48.024 93.32 54.456 90.44L55.464 91.016L57.768 98.072C54.216 100.76 50.088 103.208 45.384 105.416C40.776 107.624 36.744 108.728 33.288 108.728ZM38.616 64.088C39.768 63.992 40.488 63.752 40.776 63.368C41.16 62.984 41.352 62.12 41.352 60.776C41.352 53.672 38.328 50.12 32.28 50.12C28.536 50.12 25.464 51.416 23.064 54.008C20.76 56.6 19.368 60.344 18.888 65.24L38.616 64.088ZM126.732 108.728C118.188 108.728 113.388 105.272 112.332 98.36L111.468 98.072C102.156 104.792 96.5396 108.152 94.6196 108.152C86.2676 108.152 79.5956 105.32 74.6036 99.656C69.7076 93.992 67.2596 86.312 67.2596 76.616C67.2596 69.512 68.7956 63.128 71.8676 57.464C75.0356 51.704 79.3556 47.24 84.8276 44.072C90.3956 40.808 96.6356 39.176 103.548 39.176C105.852 39.176 108.348 39.32 111.036 39.608V21.032C111.036 18.056 110.556 15.992 109.596 14.84C108.732 13.592 107.196 12.968 104.988 12.968C104.22 12.968 103.5 13.016 102.828 13.112C102.156 13.208 101.724 13.304 101.532 13.4L102.396 4.90399C108.06 4.232 113.772 3.368 119.532 2.31199C125.292 1.25599 129.036 0.535995 130.764 0.151994L132.06 2.6C130.812 4.424 129.756 13.784 128.892 30.68C128.028 47.576 127.596 66.728 127.596 88.136C127.596 89.96 127.98 91.4 128.748 92.456C129.612 93.512 130.764 94.04 132.204 94.04C133.26 94.04 134.268 93.848 135.228 93.464C136.188 93.08 136.956 92.696 137.532 92.312C138.204 91.928 138.636 91.688 138.828 91.592L141.132 94.616C140.844 95.192 140.028 96.44 138.684 98.36C137.34 100.28 135.564 102.296 133.356 104.408C131.244 106.52 129.036 107.96 126.732 108.728ZM99.9476 94.904C101.484 94.904 103.068 94.568 104.7 93.896C106.428 93.128 107.82 92.36 108.876 91.592C110.028 90.824 110.748 90.296 111.036 90.008V53.576C110.844 53.48 110.268 53.24 109.308 52.856C108.348 52.472 107.1 52.088 105.564 51.704C104.028 51.32 102.3 51.128 100.38 51.128C95.6756 51.128 92.0276 52.904 89.4356 56.456C86.8436 59.912 85.5476 64.856 85.5476 71.288C85.5476 78.392 86.8436 84.104 89.4356 88.424C92.1236 92.744 95.6276 94.904 99.9476 94.904ZM151.659 58.472C151.659 55.976 151.275 54.2 150.507 53.144C149.739 51.992 148.491 51.416 146.763 51.416C145.899 51.416 145.131 51.464 144.459 51.56C143.787 51.656 143.355 51.752 143.163 51.848L144.027 43.496C149.019 42.824 154.203 42.008 159.579 41.048C164.955 39.992 168.459 39.272 170.091 38.888L171.387 41.192C170.331 43.592 169.419 48.872 168.651 57.032C167.883 65.096 167.499 73.448 167.499 82.088C167.499 86.024 168.219 88.952 169.659 90.872C171.195 92.792 173.499 93.752 176.571 93.752C178.491 93.752 180.363 93.32 182.187 92.456C184.107 91.496 186.411 90.104 189.099 88.28V58.616C189.099 55.928 188.667 54.104 187.803 53.144C187.035 52.184 185.403 51.656 182.907 51.56L180.315 51.704L181.467 43.496C186.651 42.824 191.979 42.008 197.451 41.048C203.019 40.088 206.619 39.464 208.251 39.176L209.547 41.48C208.491 43.688 207.579 49.304 206.811 58.328C206.043 67.352 205.659 77.288 205.659 88.136C205.659 89.96 206.139 91.4 207.099 92.456C208.059 93.512 209.307 94.04 210.843 94.04C211.899 94.04 212.907 93.848 213.867 93.464C214.923 93.08 215.787 92.696 216.459 92.312C217.131 91.928 217.563 91.688 217.755 91.592L219.915 94.472C219.531 95.144 218.571 96.536 217.035 98.648C215.499 100.664 213.627 102.728 211.419 104.84C209.211 106.952 207.099 108.248 205.083 108.728C196.347 108.728 191.451 105.032 190.395 97.64L189.243 97.064C185.595 100.424 182.235 103.208 179.163 105.416C176.187 107.528 174.171 108.584 173.115 108.584C165.819 108.584 160.251 107.048 156.411 103.976C152.571 100.904 150.651 96.44 150.651 90.584L151.659 58.472ZM254.893 108.728C245.101 108.728 237.373 105.8 231.709 99.944C226.045 93.992 223.213 85.88 223.213 75.608C223.213 68.504 224.701 62.168 227.677 56.6C230.653 51.032 234.781 46.712 240.061 43.64C245.437 40.472 251.485 38.888 258.205 38.888C261.373 38.888 264.301 39.128 266.989 39.608C269.773 39.992 271.933 40.424 273.469 40.904C275.101 41.288 276.109 41.576 276.493 41.768L277.069 43.064C276.973 43.64 276.685 44.984 276.205 47.096C275.821 49.112 275.389 51.752 274.909 55.016C274.429 58.28 274.093 61.688 273.901 65.24L264.685 65.816V61.064C264.685 57.8 263.869 55.304 262.237 53.576C260.701 51.752 258.493 50.84 255.613 50.84C251.101 50.84 247.645 52.52 245.245 55.88C242.941 59.144 241.789 63.848 241.789 69.992C241.789 77.864 243.181 83.912 245.965 88.136C248.749 92.36 252.685 94.472 257.773 94.472C260.173 94.472 262.477 94.184 264.685 93.608C266.989 92.936 268.861 92.264 270.301 91.592C271.837 90.92 272.797 90.488 273.181 90.296L274.189 90.728L276.493 98.072C275.821 98.648 274.285 99.8 271.885 101.528C269.485 103.16 266.701 104.792 263.533 106.424C260.365 107.96 257.485 108.728 254.893 108.728ZM335.086 108.728C330.862 108.728 327.502 107.816 325.006 105.992C322.606 104.072 321.166 101.288 320.686 97.64L319.534 97.208C316.462 100.376 313.486 103.016 310.606 105.128C307.726 107.144 305.422 108.152 303.694 108.152C298.03 108.152 293.326 106.184 289.582 102.248C285.838 98.216 283.966 93.224 283.966 87.272C283.966 84.296 284.734 81.752 286.27 79.64C287.806 77.432 289.822 75.992 292.318 75.32L320.11 68.84L320.254 65.384C320.254 61.256 319.15 58.04 316.942 55.736C314.734 53.432 311.71 52.28 307.87 52.28C305.278 52.28 302.446 52.952 299.374 54.296C296.398 55.544 293.614 57.128 291.022 59.048L289.726 58.472L287.278 49.832C292.078 47.144 297.118 44.648 302.398 42.344C307.678 40.04 311.422 38.888 313.63 38.888C321.598 38.888 327.55 40.712 331.486 44.36C335.518 47.912 337.534 52.616 337.534 58.472C337.534 60.584 337.102 64.904 336.238 71.432C335.182 80.744 334.654 86.312 334.654 88.136C334.654 89.96 335.134 91.4 336.094 92.456C337.054 93.512 338.302 94.04 339.838 94.04C340.99 94.04 342.19 93.8 343.438 93.32C344.782 92.744 345.886 92.168 346.75 91.592L348.91 94.616C347.182 97.688 345.022 100.664 342.43 103.544C339.934 106.328 337.486 108.056 335.086 108.728ZM309.022 94.472C310.462 94.472 312.142 94.088 314.062 93.32C316.078 92.552 317.854 91.544 319.39 90.296L319.822 76.616L304.414 80.936C302.11 81.512 300.958 83.096 300.958 85.688C300.958 88.184 301.678 90.296 303.118 92.024C304.654 93.656 306.622 94.472 309.022 94.472ZM379.352 108.728C372.536 108.728 367.544 107.336 364.376 104.552C361.208 101.672 359.624 97.16 359.624 91.016V58.904C359.624 55.832 359.096 53.816 358.04 52.856C356.984 51.8 354.92 51.224 351.848 51.128L350.408 50.12L351.416 43.064C355.064 41.336 358.664 39.368 362.216 37.16C365.768 34.856 368.696 32.84 371 31.112C373.4 29.384 374.888 28.28 375.464 27.8L379.496 29.816C379.4 30.392 379.16 31.784 378.776 33.992C378.488 36.2 378.2 38.936 377.912 42.2L394.904 41.768L395.48 42.488L394.04 52.136L377.048 51.704C376.472 60.056 376.184 70.52 376.184 83.096C376.184 87.224 376.904 90.2 378.344 92.024C379.784 93.848 382.136 94.76 385.4 94.76C387.128 94.76 388.856 94.472 390.584 93.896C392.408 93.32 393.56 92.936 394.04 92.744L395.912 97.352C395.336 97.928 393.944 99.128 391.736 100.952C389.624 102.776 387.32 104.552 384.824 106.28C382.424 107.912 380.6 108.728 379.352 108.728ZM432.492 108.728C426.444 108.728 421.116 107.384 416.508 104.696C411.9 101.912 408.348 98.024 405.852 93.032C403.356 88.04 402.108 82.28 402.108 75.752C402.108 68.552 403.548 62.168 406.428 56.6C409.404 51.032 413.484 46.712 418.668 43.64C423.948 40.472 429.996 38.888 436.812 38.888C446.124 38.888 453.468 41.864 458.844 47.816C464.316 53.672 467.052 61.64 467.052 71.72C467.052 78.92 465.612 85.352 462.732 91.016C459.852 96.584 455.772 100.952 450.492 104.12C445.308 107.192 439.308 108.728 432.492 108.728ZM435.372 97.928C439.5 97.928 442.62 96.296 444.732 93.032C446.94 89.672 448.044 84.776 448.044 78.344C448.044 69.32 446.796 62.504 444.3 57.896C441.804 53.288 438.204 50.984 433.5 50.984C429.372 50.984 426.204 52.664 423.996 56.024C421.884 59.288 420.828 64.136 420.828 70.568C420.828 79.592 422.076 86.408 424.572 91.016C427.068 95.624 430.668 97.928 435.372 97.928ZM478.086 98.792C480.966 98.6 482.886 97.832 483.846 96.488C484.902 95.144 485.43 92.6 485.43 88.856V60.2C485.43 56.936 484.998 54.728 484.134 53.576C483.27 52.328 481.638 51.704 479.238 51.704L476.502 51.848L475.782 50.84L476.646 43.64C481.734 42.776 486.918 41.816 492.198 40.76C497.574 39.704 501.03 39.032 502.566 38.744L503.862 40.04C503.67 40.904 503.382 42.728 502.998 45.512C502.71 48.296 502.518 50.984 502.422 53.576L503.286 54.152C506.262 49.64 509.526 46.136 513.078 43.64C516.726 41.144 520.182 39.896 523.446 39.896C524.79 39.896 525.894 39.944 526.758 40.04C527.622 40.136 528.198 40.232 528.486 40.328L529.062 41.48C528.774 43.112 528.294 46.664 527.622 52.136C526.95 57.512 526.47 62.648 526.182 67.544L516.966 68.12C516.966 63.512 516.678 60.488 516.102 59.048C515.622 57.512 514.566 56.744 512.934 56.744C511.398 56.744 509.766 57.32 508.038 58.472C506.31 59.624 504.678 61.208 503.142 63.224C503.046 65.912 502.806 70.328 502.422 76.472C502.134 82.52 501.942 87.368 501.846 91.016C501.846 93.512 502.23 95.24 502.998 96.2C503.862 97.16 505.35 97.64 507.462 97.64C508.902 97.64 510.342 97.592 511.782 97.496C513.222 97.4 514.182 97.304 514.662 97.208L515.094 98.072L513.51 107.576C512.166 107.48 509.67 107.336 506.022 107.144C502.47 107.048 498.774 107 494.934 107C491.286 107 487.638 107.048 483.99 107.144C480.342 107.336 477.99 107.48 476.934 107.576L478.086 98.792Z" fill="black"/>
</svg>
