<svg width="532" height="481" viewBox="0 0 532 481" fill="none" xmlns="http://www.w3.org/2000/svg">
<path d="M82.1387 287.858C96.1572 308.243 136.986 303.918 155.649 299.208C151.612 305.332 140.503 312.421 136.577 321.887C131.613 333.857 134.691 348.27 139.91 354.292C149.256 365.077 171.068 365.696 180.805 364.658C178.9 366.333 175.424 371.872 176.758 380.626C178.426 391.568 191.008 397.995 200.702 405.307C208.456 411.157 210.008 421.153 209.815 425.42C215.872 423.718 230.374 419.302 239.928 415.25C251.87 410.184 267.342 415.725 274.726 411.122C280.633 407.44 283.867 397.255 284.745 392.622C292.598 397.849 311.952 405.83 326.54 395.933C341.128 386.035 335.62 361.279 331.042 350.138C341.527 355.493 365.721 365.402 378.614 362.196C391.506 358.99 394.69 334.981 394.671 323.377C402.396 325.605 419.606 328.726 426.644 323.389C435.441 316.717 445.907 310.468 448.219 301.344C450.07 294.044 461.575 290.702 467.097 289.944C464.336 290.323 457.184 288.402 450.663 277.686C442.511 264.291 455.609 265.183 443.67 249.209C434.118 236.43 418.162 233.033 411.378 232.932C417.906 230.54 429.216 221.43 422.233 204.123C415.251 186.816 378.707 186.616 361.308 188.68C364.625 184.935 373.2 174.701 380.958 163.719C390.655 149.992 384.505 129.324 375.122 120.16C367.291 112.51 351.497 115.25 339.748 116.049C339.642 107.121 341.684 85.9241 330.316 79.6707C319.402 73.6672 311.764 61.751 307.014 55.9613C302.926 59.241 293.26 66.0703 287.302 67.1496C279.854 68.4988 273.563 65.2857 259.246 65.7028C247.792 66.0366 237.479 81.4953 233.754 89.1829C225.087 84.8283 204.556 78.2217 191.765 86.6326C178.975 95.0435 181.509 121.258 184.374 133.313C178.77 131.113 168.093 122.713 157.347 120.798C149.506 119.4 139.884 119.608 133.913 122.141C119.132 128.41 114.841 148.328 114.903 158.594C111.544 156.663 102.693 154.204 94.1656 159.811C83.5068 166.82 80.6158 178.226 74.2591 182.279C69.1737 185.522 54.4191 190.468 47.6775 192.536C51.1863 198.55 59.1024 211.94 62.6969 217.383C67.1899 224.186 63.528 238.633 68.8557 245.648C73.1178 251.26 88.9927 252.641 96.3974 252.629C85.8034 255.878 68.1202 267.473 82.1387 287.858Z" fill="url(#paint0_radial)" stroke="white" stroke-width="2"/>
<path d="M197.527 279.038C184.619 263.059 180.097 245.939 185.207 225.776C189.493 208.868 199.833 194.371 214.277 185.79C230.543 176.128 249.695 172.972 270.679 178.291C288.118 182.711 304.391 192.05 314.334 204.41C327.186 220.383 332.673 240.949 327.577 261.053C325.561 269.008 323.17 275.406 319.711 280.879C316.264 286.332 311.7 290.955 305.223 295.275C288.417 306.486 265.995 311.356 243.712 305.708C235.236 303.559 226.379 300.083 218.369 295.637C209.96 290.97 202.575 285.286 197.527 279.038Z" stroke="white" stroke-width="4"/>
<path d="M264.294 206.985C274.951 210.496 284.429 214.646 289.909 221.569C296.217 229.538 300.734 231.596 294.76 255.166C292.789 262.941 286.085 267.224 279.34 271.486C270.421 277.122 260.758 280.533 248.686 277.473C239.319 275.098 229.148 268.671 223.687 262.235C216.787 254.104 213.715 243.732 216.27 233.653C219.109 222.454 224.745 212.335 240.285 208.991C247.373 206.948 256.242 204.944 264.294 206.985Z" fill="#D5AD45"/>
<line x1="2" y1="-2" x2="48.5283" y2="-2" transform="matrix(-0.734494 0.678615 -0.736244 -0.676716 219.722 295.217)" stroke="white" stroke-width="4" stroke-linecap="round" stroke-linejoin="round"/>
<line x1="2" y1="-2" x2="57.7165" y2="-2" transform="matrix(-0.301195 0.953563 -0.956466 -0.291845 243.991 304.605)" stroke="white" stroke-width="4" stroke-linecap="round" stroke-linejoin="round"/>
<line x1="2" y1="-2" x2="45.379" y2="-2" transform="matrix(0.281684 0.959507 -0.978479 0.206348 266.46 307.062)" stroke="white" stroke-width="4" stroke-linecap="round" stroke-linejoin="round"/>
<line x1="2" y1="-2" x2="58.3927" y2="-2" transform="matrix(0.518626 0.855001 -0.899349 0.437232 297.021 298.625)" stroke="white" stroke-width="4" stroke-linecap="round" stroke-linejoin="round"/>
<line x1="2" y1="-2" x2="48.7695" y2="-2" transform="matrix(0.788993 0.614402 -0.670149 0.742227 319.885 278.523)" stroke="white" stroke-width="4" stroke-linecap="round" stroke-linejoin="round"/>
<line x1="2" y1="-2" x2="63.5983" y2="-2" transform="matrix(0.984475 0.175523 -0.161098 0.986938 326.95 257.656)" stroke="white" stroke-width="4" stroke-linecap="round" stroke-linejoin="round"/>
<line x1="2" y1="-2" x2="51.9411" y2="-2" transform="matrix(0.990286 -0.139045 0.207493 0.978236 326.44 231.631)" stroke="white" stroke-width="4" stroke-linecap="round" stroke-linejoin="round"/>
<line x1="2" y1="-2" x2="51.4103" y2="-2" transform="matrix(0.860729 -0.509064 0.586512 0.80994 320.281 213.886)" stroke="white" stroke-width="4" stroke-linecap="round" stroke-linejoin="round"/>
<line x1="2" y1="-2" x2="45.379" y2="-2" transform="matrix(0.704721 -0.709484 0.762051 0.647517 293.189 187.596)" stroke="white" stroke-width="4" stroke-linecap="round" stroke-linejoin="round"/>
<line x1="2" y1="-2" x2="57.6414" y2="-2" transform="matrix(0.216848 -0.976205 0.975101 0.221763 272.263 179.056)" stroke="white" stroke-width="4" stroke-linecap="round" stroke-linejoin="round"/>
<line x1="2" y1="-2" x2="48.1053" y2="-2" transform="matrix(-0.250971 -0.967995 0.983985 -0.178251 246.452 175.75)" stroke="white" stroke-width="4" stroke-linecap="round" stroke-linejoin="round"/>
<line x1="2" y1="-2" x2="61.1531" y2="-2" transform="matrix(-0.581353 -0.813652 0.863995 -0.503501 221.669 182.418)" stroke="white" stroke-width="4" stroke-linecap="round" stroke-linejoin="round"/>
<line x1="2" y1="-2" x2="48.7695" y2="-2" transform="matrix(-0.788993 -0.614402 0.670149 -0.742227 197.525 200.573)" stroke="white" stroke-width="4" stroke-linecap="round" stroke-linejoin="round"/>
<line x1="2" y1="-2" x2="63.4599" y2="-2" transform="matrix(-0.963179 -0.268862 0.273584 -0.961848 186.352 223.637)" stroke="white" stroke-width="4" stroke-linecap="round" stroke-linejoin="round"/>
<line x1="2" y1="-2" x2="47.1974" y2="-2" transform="matrix(-0.983985 0.178251 -0.250971 -0.967994 184.291 245.774)" stroke="white" stroke-width="4" stroke-linecap="round" stroke-linejoin="round"/>
<line x1="2" y1="-2" x2="46.7563" y2="-2" transform="matrix(-0.858609 0.512631 -0.589812 -0.807541 194.817 274.335)" stroke="white" stroke-width="4" stroke-linecap="round" stroke-linejoin="round"/>
<defs>
<radialGradient id="paint0_radial" cx="0" cy="0" r="1" gradientUnits="userSpaceOnUse" gradientTransform="translate(257.58 240.479) rotate(32.8106) scale(308.847 279.767)">
<stop offset="0.0520833" stop-color="#556798"/>
<stop offset="1" stop-color="#546593" stop-opacity="0"/>
</radialGradient>
</defs>
</svg>
